<svg  version="1.0" xmlns="http://www.w3.org/2000/svg" xmlns:xlink="http://www.w3.org/1999/xlink" width="100%" height="100%" viewBox="0 0 340.000000 250.000000" preserveAspectRatio="xMidYMid meet" color-interpolation-filters="sRGB" class="el-tooltip" style="margin: auto;">
	<rect  x="0" y="0" width="100%" height="100%" fill="url(#watermark)" fill-opacity="1" class="watermarklayer"></rect> 
	<g  fill="#fff" class="pmspacesvg" transform="translate(107.88999938964844,84.7699966430664)">
		<g>
			<g class="tp-name">
				<rect rx="0" x="0" y="0" width="0" height="0"></rect> 
				<g transform="translate(0,0)">
					<svg fill="#fff" width="124.21875" height="40.234375">
						<path transform="translate(-4.6875,83.984375)" d="M16.41-26.56L15.23-26.17L15.23-26.17Q14.45-25 14.45-24.61L14.45-24.61L14.45-24.61Q15.23-23.44 15.23-22.85L15.23-22.85L15.23-22.85Q15.23-22.27 15.63-22.27L15.63-22.27L15.63-14.06L15.63-14.06Q13.67-11.72 12.11-10.94L12.11-10.94L12.11-10.94Q7.81-10.94 7.42-19.53L7.42-19.53L7.42-23.05L7.42-23.05Q7.81-25.39 7.81-27.93L7.81-27.93L7.81-27.93Q7.81-30.47 8.20-32.42L8.20-32.42L8.20-43.36L8.20-43.36Q7.81-44.92 7.62-48.24L7.62-48.24L7.62-48.24Q7.42-51.56 7.03-56.25L7.03-56.25L5.08-67.97L5.08-67.97Q4.69-73.44 4.69-77.34L4.69-77.34L4.69-80.08L4.69-80.08Q5.08-81.64 5.08-83.98L5.08-83.98L5.08-83.98Q8.20-83.98 9.38-82.42L9.38-82.42L9.38-82.42Q11.33-80.86 11.33-78.13L11.33-78.13L11.33-73.05L11.33-73.05Q11.72-73.05 11.72-72.66L11.72-72.66L11.72-69.14L12.11-68.75L12.11-67.19L12.11-67.19Q12.50-64.84 12.70-61.72L12.70-61.72L12.70-61.72Q12.89-58.59 12.89-54.69L12.89-54.69L12.89-54.69Q13.28-52.34 13.28-51.17L13.28-51.17L13.28-48.44L13.28-48.44Q13.28-47.66 13.67-46.88L13.67-46.88L13.67-42.19L13.67-42.19Q13.67-41.80 14.06-41.80L14.06-41.80L14.06-41.80Q17.97-45.70 21.88-47.27L21.88-47.27L21.88-47.27Q25.78-48.83 29.30-48.44L29.30-48.44L29.30-48.44Q34.38-48.44 34.38-43.75L34.38-43.75L34.38-43.75Q34.38-38.28 22.66-29.30L22.66-29.30L23.83-28.13L23.83-28.13Q24.61-27.34 25.20-26.95L25.20-26.95L25.20-26.95Q25.78-26.56 26.56-25.78L26.56-25.78L26.56-25.78Q28.13-24.61 28.52-23.83L28.52-23.83L28.52-23.83Q40.63-10.94 40.63-9.38L40.63-9.38L40.63-9.38Q39.84-5.86 37.50-5.08L37.50-5.08L37.50-5.08Q36.72-5.08 35.55-5.86L35.55-5.86L34.38-7.03L34.38-7.03Q34.38-7.81 33.98-7.81L33.98-7.81L33.59-8.20L33.59-8.20Q33.59-8.59 32.42-9.57L32.42-9.57L32.42-9.57Q31.25-10.55 30.86-11.72L30.86-11.72L30.86-11.72Q30.47-12.11 29.69-13.28L29.69-13.28L27.73-15.23L28.13-15.23L28.13-15.23Q25-18.75 24.22-19.14L24.22-19.14L23.05-20.31L23.05-20.31Q22.66-20.70 22.27-21.48L22.27-21.48L21.09-22.66L21.48-22.66L19.53-24.61L19.53-24.61Q17.97-25 16.41-26.56L16.41-26.56ZM16.02-36.33L16.80-37.89L16.80-36.33L16.02-36.33ZM26.95-42.19L25-42.19L25-42.19Q24.22-41.41 21.09-39.65L21.09-39.65L21.09-39.65Q17.97-37.89 17.58-36.33L17.58-36.33L16.80-36.33L16.80-36.33Q17.58-34.38 18.36-33.59L18.36-33.59L18.36-33.59Q18.75-33.98 19.53-33.98L19.53-33.98L19.92-33.98L19.92-33.98Q21.09-34.77 21.09-35.55L21.09-35.55L21.09-35.55Q24.61-38.28 26.95-41.41L26.95-41.41L26.95-42.19ZM74.22-25.78L86.72-46.09L87.11-46.48L87.11-48.83L87.11-48.83Q86.72-50 86.72-50.98L86.72-50.98L86.72-50.98Q86.72-51.95 87.70-52.54L87.70-52.54L87.70-52.54Q88.67-53.13 89.84-53.13L89.84-53.13L89.84-53.13Q94.14-53.52 93.75-47.66L93.75-47.66L93.75-47.66Q92.58-44.53 90.04-40.23L90.04-40.23L90.04-40.23Q87.50-35.94 83.98-30.08L83.98-30.08L78.52-21.48L78.52-21.48Q77.34-20.31 76.56-17.19L76.56-17.19L76.56-17.19Q76.56-16.41 76.37-15.43L76.37-15.43L76.37-15.43Q76.17-14.45 75.39-14.06L75.39-14.06L75.39-14.06Q74.61-13.67 74.22-11.72L74.22-11.72L74.22-11.72Q73.05-3.52 69.14-3.52L69.14-3.52L69.14-3.52Q67.58-3.52 66.41-5.86L66.41-5.86L66.41-6.64L66.02-6.64L66.02-8.98L66.02-8.98Q65.23-18.36 62.11-26.56L62.11-26.56L62.11-26.56Q59.38-33.98 54.69-39.06L54.69-39.06L54.69-39.06Q53.52-39.06 53.13-39.84L53.13-39.84L53.13-39.84Q51.95-40.63 51.56-40.63L51.56-40.63L51.56-40.63Q51.17-40.63 50.78-41.21L50.78-41.21L50.78-41.21Q50.39-41.80 50.39-42.19L50.39-42.19L50.39-42.19Q46.48-44.92 46.48-47.46L46.48-47.46L46.48-47.46Q46.48-50 51.17-50L51.17-50L51.17-50Q55.47-47.66 58.79-43.75L58.79-43.75L58.79-43.75Q62.11-39.84 65.23-33.98L65.23-33.98L65.23-33.98Q66.41-32.42 68.36-27.34L68.36-27.34L68.36-27.34Q68.75-25.39 69.14-25.39L69.14-25.39L69.14-25.39Q69.53-23.05 70.31-20.31L70.31-20.31L70.31-20.31Q71.09-20.70 71.29-21.09L71.29-21.09L71.29-21.09Q71.48-21.48 71.48-21.88L71.48-21.88L73.05-24.61L74.22-25.78ZM109.38-10.16L109.38-10.16L109.38-10.16Q108.59-12.50 107.03-14.45L107.03-14.45L107.03-14.45Q106.25-16.41 105.08-18.36L105.08-18.36L105.08-18.36Q103.13-22.27 103.13-34.77L103.13-34.77L103.13-37.50L103.13-37.50Q103.13-38.28 103.52-40.23L103.52-40.23L103.52-46.09L103.52-46.09Q104.30-50.39 105.66-55.86L105.66-55.86L105.66-55.86Q107.03-61.33 109.77-68.36L109.77-68.36L110.55-69.14L110.55-69.14Q110.94-69.53 110.94-70.31L110.94-70.31L110.94-70.31Q110.94-73.05 114.06-73.05L114.06-73.05L114.06-73.05Q115.63-72.27 116.99-71.68L116.99-71.68L116.99-71.68Q118.36-71.09 118.75-69.92L118.75-69.92L118.75-68.36L118.36-68.36L117.58-67.97L117.58-67.97Q117.58-67.58 117.19-67.19L117.19-67.19L116.02-66.02L115.63-65.23L114.84-64.45L114.84-64.06L114.84-64.06Q114.45-62.11 114.45-61.72L114.45-61.72L112.89-58.59L110.55-51.95L110.55-50L110.55-50Q110.55-48.83 110.16-47.27L110.16-47.27L107.81-47.66L107.81-47.66Q106.64-41.41 106.05-38.48L106.05-38.48L106.05-38.48Q105.47-35.55 105.86-35.55L105.86-35.55L107.03-38.28L107.03-38.28Q107.81-41.41 109.77-46.09L109.77-46.09L109.77-25L109.77-25Q109.77-23.83 110.55-23.05L110.55-23.05L110.55-23.05Q110.55-22.66 111.13-20.90L111.13-20.90L111.13-20.90Q111.72-19.14 113.28-16.41L113.28-16.41L113.28-16.41Q113.28-13.67 116.41-13.28L116.41-13.28L116.41-13.28Q118.36-13.28 121.48-15.23L121.48-15.23L121.48-15.23Q124.22-18.36 126.56-18.36L126.56-18.36L126.56-18.36Q128.91-18.36 128.91-16.02L128.91-16.02L128.91-16.02Q126.56-10.55 115.63-7.03L115.63-7.03L115.63-7.03Q111.72-6.64 109.38-10.16Z"></path></svg> <svg fill="#fff" y="40.234375" width="124.21875" height="40.234375"><path transform="translate(-4.6875,43.75)" d="M16.41-26.56L15.23-26.17L15.23-26.17Q14.45-25 14.45-24.61L14.45-24.61L14.45-24.61Q15.23-23.44 15.23-22.85L15.23-22.85L15.23-22.85Q15.23-22.27 15.63-22.27L15.63-22.27L15.63-14.06L15.63-14.06Q13.67-11.72 12.11-10.94L12.11-10.94L12.11-10.94Q7.81-10.94 7.42-19.53L7.42-19.53L7.42-23.05L7.42-23.05Q7.81-25.39 7.81-27.93L7.81-27.93L7.81-27.93Q7.81-30.47 8.20-32.42L8.20-32.42L8.20-43.36L8.20-43.36Q7.81-44.92 7.62-48.24L7.62-48.24L7.62-48.24Q7.42-51.56 7.03-56.25L7.03-56.25L5.08-67.97L5.08-67.97Q4.69-73.44 4.69-77.34L4.69-77.34L4.69-80.08L4.69-80.08Q5.08-81.64 5.08-83.98L5.08-83.98L5.08-83.98Q8.20-83.98 9.38-82.42L9.38-82.42L9.38-82.42Q11.33-80.86 11.33-78.13L11.33-78.13L11.33-73.05L11.33-73.05Q11.72-73.05 11.72-72.66L11.72-72.66L11.72-69.14L12.11-68.75L12.11-67.19L12.11-67.19Q12.50-64.84 12.70-61.72L12.70-61.72L12.70-61.72Q12.89-58.59 12.89-54.69L12.89-54.69L12.89-54.69Q13.28-52.34 13.28-51.17L13.28-51.17L13.28-48.44L13.28-48.44Q13.28-47.66 13.67-46.88L13.67-46.88L13.67-42.19L13.67-42.19Q13.67-41.80 14.06-41.80L14.06-41.80L14.06-41.80Q17.97-45.70 21.88-47.27L21.88-47.27L21.88-47.27Q25.78-48.83 29.30-48.44L29.30-48.44L29.30-48.44Q34.38-48.44 34.38-43.75L34.38-43.75L34.38-43.75Q34.38-38.28 22.66-29.30L22.66-29.30L23.83-28.13L23.83-28.13Q24.61-27.34 25.20-26.95L25.20-26.95L25.20-26.95Q25.78-26.56 26.56-25.78L26.56-25.78L26.56-25.78Q28.13-24.61 28.52-23.83L28.52-23.83L28.52-23.83Q40.63-10.94 40.63-9.38L40.63-9.38L40.63-9.38Q39.84-5.86 37.50-5.08L37.50-5.08L37.50-5.08Q36.72-5.08 35.55-5.86L35.55-5.86L34.38-7.03L34.38-7.03Q34.38-7.81 33.98-7.81L33.98-7.81L33.59-8.20L33.59-8.20Q33.59-8.59 32.42-9.57L32.42-9.57L32.42-9.57Q31.25-10.55 30.86-11.72L30.86-11.72L30.86-11.72Q30.47-12.11 29.69-13.28L29.69-13.28L27.73-15.23L28.13-15.23L28.13-15.23Q25-18.75 24.22-19.14L24.22-19.14L23.05-20.31L23.05-20.31Q22.66-20.70 22.27-21.48L22.27-21.48L21.09-22.66L21.48-22.66L19.53-24.61L19.53-24.61Q17.97-25 16.41-26.56L16.41-26.56ZM16.02-36.33L16.80-37.89L16.80-36.33L16.02-36.33ZM26.95-42.19L25-42.19L25-42.19Q24.22-41.41 21.09-39.65L21.09-39.65L21.09-39.65Q17.97-37.89 17.58-36.33L17.58-36.33L16.80-36.33L16.80-36.33Q17.58-34.38 18.36-33.59L18.36-33.59L18.36-33.59Q18.75-33.98 19.53-33.98L19.53-33.98L19.92-33.98L19.92-33.98Q21.09-34.77 21.09-35.55L21.09-35.55L21.09-35.55Q24.61-38.28 26.95-41.41L26.95-41.41L26.95-42.19ZM74.22-25.78L86.72-46.09L87.11-46.48L87.11-48.83L87.11-48.83Q86.72-50 86.72-50.98L86.72-50.98L86.72-50.98Q86.72-51.95 87.70-52.54L87.70-52.54L87.70-52.54Q88.67-53.13 89.84-53.13L89.84-53.13L89.84-53.13Q94.14-53.52 93.75-47.66L93.75-47.66L93.75-47.66Q92.58-44.53 90.04-40.23L90.04-40.23L90.04-40.23Q87.50-35.94 83.98-30.08L83.98-30.08L78.52-21.48L78.52-21.48Q77.34-20.31 76.56-17.19L76.56-17.19L76.56-17.19Q76.56-16.41 76.37-15.43L76.37-15.43L76.37-15.43Q76.17-14.45 75.39-14.06L75.39-14.06L75.39-14.06Q74.61-13.67 74.22-11.72L74.22-11.72L74.22-11.72Q73.05-3.52 69.14-3.52L69.14-3.52L69.14-3.52Q67.58-3.52 66.41-5.86L66.41-5.86L66.41-6.64L66.02-6.64L66.02-8.98L66.02-8.98Q65.23-18.36 62.11-26.56L62.11-26.56L62.11-26.56Q59.38-33.98 54.69-39.06L54.69-39.06L54.69-39.06Q53.52-39.06 53.13-39.84L53.13-39.84L53.13-39.84Q51.95-40.63 51.56-40.63L51.56-40.63L51.56-40.63Q51.17-40.63 50.78-41.21L50.78-41.21L50.78-41.21Q50.39-41.80 50.39-42.19L50.39-42.19L50.39-42.19Q46.48-44.92 46.48-47.46L46.48-47.46L46.48-47.46Q46.48-50 51.17-50L51.17-50L51.17-50Q55.47-47.66 58.79-43.75L58.79-43.75L58.79-43.75Q62.11-39.84 65.23-33.98L65.23-33.98L65.23-33.98Q66.41-32.42 68.36-27.34L68.36-27.34L68.36-27.34Q68.75-25.39 69.14-25.39L69.14-25.39L69.14-25.39Q69.53-23.05 70.31-20.31L70.31-20.31L70.31-20.31Q71.09-20.70 71.29-21.09L71.29-21.09L71.29-21.09Q71.48-21.48 71.48-21.88L71.48-21.88L73.05-24.61L74.22-25.78ZM109.38-10.16L109.38-10.16L109.38-10.16Q108.59-12.50 107.03-14.45L107.03-14.45L107.03-14.45Q106.25-16.41 105.08-18.36L105.08-18.36L105.08-18.36Q103.13-22.27 103.13-34.77L103.13-34.77L103.13-37.50L103.13-37.50Q103.13-38.28 103.52-40.23L103.52-40.23L103.52-46.09L103.52-46.09Q104.30-50.39 105.66-55.86L105.66-55.86L105.66-55.86Q107.03-61.33 109.77-68.36L109.77-68.36L110.55-69.14L110.55-69.14Q110.94-69.53 110.94-70.31L110.94-70.31L110.94-70.31Q110.94-73.05 114.06-73.05L114.06-73.05L114.06-73.05Q115.63-72.27 116.99-71.68L116.99-71.68L116.99-71.68Q118.36-71.09 118.75-69.92L118.75-69.92L118.75-68.36L118.36-68.36L117.58-67.97L117.58-67.97Q117.58-67.58 117.19-67.19L117.19-67.19L116.02-66.02L115.63-65.23L114.84-64.45L114.84-64.06L114.84-64.06Q114.45-62.11 114.45-61.72L114.45-61.72L112.89-58.59L110.55-51.95L110.55-50L110.55-50Q110.55-48.83 110.16-47.27L110.16-47.27L107.81-47.66L107.81-47.66Q106.64-41.41 106.05-38.48L106.05-38.48L106.05-38.48Q105.47-35.55 105.86-35.55L105.86-35.55L107.03-38.28L107.03-38.28Q107.81-41.41 109.77-46.09L109.77-46.09L109.77-25L109.77-25Q109.77-23.83 110.55-23.05L110.55-23.05L110.55-23.05Q110.55-22.66 111.13-20.90L111.13-20.90L111.13-20.90Q111.72-19.14 113.28-16.41L113.28-16.41L113.28-16.41Q113.28-13.67 116.41-13.28L116.41-13.28L116.41-13.28Q118.36-13.28 121.48-15.23L121.48-15.23L121.48-15.23Q124.22-18.36 126.56-18.36L126.56-18.36L126.56-18.36Q128.91-18.36 128.91-16.02L128.91-16.02L128.91-16.02Q126.56-10.55 115.63-7.03L115.63-7.03L115.63-7.03Q111.72-6.64 109.38-10.16Z"></path>
					</svg>
				</g> <!---->
			</g> <!---->
		</g>
	</g>
</svg>