<svg version="1.0" xmlns="http://www.w3.org/2000/svg" xmlns:xlink="http://www.w3.org/1999/xlink" width="100%" height="100%" viewBox="0 0 340.000000 250.000000" preserveAspectRatio="xMidYMid meet" color-interpolation-filters="sRGB" class="el-tooltip" style="margin: auto;"><rect x="0" y="0" width="100%" height="100%" fill="rgba(3, 169, 244, 1)" fill-opacity="1"></rect> <rect x="0" y="0" width="100%" height="100%" fill="url(#watermark)" fill-opacity="1" class="watermarklayer"></rect> <g fill="#fff" class="icon-svg-group iconsvg" transform="translate(85.1349868774414,94.99913597106934)"><g class="iconsvg-imagesvg" transform="translate(0,0)"><rect fill="#50d1f1" fill-opacity="0" stroke-width="2" x="0" y="0" width="48" height="60"></rect> <svg x="0" y="0" width="48" height="60" class="imagesvg-svg"><svg xmlns="http://www.w3.org/2000/svg" viewBox="0 0 138.6 173.25"><g style="isolation:isolate"><g><path d="M124.17 0H14.44a14.44 14.44 0 1 0 0 28.87h40.42v26.37a14.44 14.44 0 0 0 28.88 0V28.87h40.43a14.44 14.44 0 0 0 0-28.87z" fill="#50d1f1" style="mix-blend-mode:multiply"></path><path d="M79.51 45a14.44 14.44 0 0 0-24.65 10.24v103.57a14.44 14.44 0 0 0 28.88 0V55.24A14.39 14.39 0 0 0 79.51 45z" fill="#b4d564" style="mix-blend-mode:multiply"></path></g></g></svg></svg> <!----></g> <g transform="translate(55.13157653808594,6.837879180908203)"><g class="tp-name iconsvg-namesvg"><g><path transform="translate(-0.203125,34.943649291992)" d="M16.05-20.92L16.05-20.92L12.39-20.92L12.39-11.78L12.39-11.78Q12.39-9.14 14.22-8.13L14.22-8.13L14.22-8.13Q15.44-7.52 15.44-6.30L15.44-6.30L15.44-6.30Q14.02-0.41 8.73 0L8.73 0L8.73 0Q3.86-0.20 3.66-6.91L3.66-6.91L3.66-6.91Q3.66-8.53 3.86-11.58L3.86-11.58L3.86-16.05L3.86-23.97L3.86-23.97Q3.86-26.41 1.63-27.83L1.63-27.83L1.63-27.83Q0.20-28.84 0.20-29.66L0.20-29.66L0.20-29.66Q0.20-30.88 3.45-32.30L3.45-32.30L3.45-32.30Q3.86-32.50 5.28-33.31L5.28-33.31L5.28-33.31Q4.27-32.70 5.69-33.52L5.69-33.52L5.69-33.52Q8.13-34.94 9.14-34.94L9.14-34.94L9.14-34.94Q12.59-35.14 12.39-28.64L12.39-28.64L12.39-24.38L16.05-24.38L16.05-24.38Q17.27-24.38 17.27-22.55L17.27-22.55L17.27-22.55Q17.27-20.92 16.05-20.92ZM43.84-17.67L43.84-17.67L31.86-8.33L31.86-8.33Q34.09-5.89 37.34-5.89L37.34-5.89L37.34-5.89Q40.80-5.89 43.23-8.94L43.23-8.94L43.23-8.94Q44.25-10.16 44.86-10.16L44.86-10.16L44.86-10.16Q46.28-10.16 46.28-8.33L46.28-8.33L46.28-8.33Q44.45 0 34.30 0L34.30 0L34.30 0Q21.70-0.61 20.69-12.39L20.69-12.39L20.69-12.39Q21.09-19.70 26.78-21.53L26.78-21.53L26.78-21.53Q28.20-21.73 28.20-19.91L28.20-19.91L28.20-19.91Q28.20-19.70 28-18.69L28-18.69L28-18.69Q27.80-17.88 27.80-16.86L27.80-16.86L27.80-16.86Q27.80-14.22 29.42-11.38L29.42-11.38L29.63-11.17L36.13-16.25L36.13-16.25Q35.72-19.91 31.25-21.33L31.25-21.33L31.25-21.33Q29.22-21.73 29.22-22.75L29.22-22.75L29.22-22.75Q29.63-25.19 35.72-25.39L35.72-25.39L35.72-25.39Q43.03-24.98 44.86-19.50L44.86-19.50L44.86-19.50Q44.86-18.69 43.84-17.67ZM53.36-10.36L53.36-10.36L53.36-15.03L53.36-15.03Q53.36-16.86 51.53-18.28L51.53-18.28L51.53-18.28Q50.31-19.30 50.31-20.11L50.31-20.11L50.31-20.11Q49.91-21.33 54.17-23.16L54.17-23.16L54.17-23.16Q54.58-23.56 55.19-23.77L55.19-23.77L55.19-23.77Q57.83-25.59 58.64-25.39L58.64-25.39L58.64-25.39Q61.89-25.39 61.89-19.09L61.89-19.09L61.89-3.05L61.89-3.05Q62.30 0.20 57.42 0L57.42 0L57.42 0Q52.95 0.20 53.16-2.84L53.16-2.84L53.16-6.30L53.16-6.30Q53.36-8.94 53.36-10.36ZM77.73-18.28L77.73-18.28L77.73-10.77L77.73-10.77Q77.73-8.53 79.36-7.52L79.36-7.52L79.36-7.52Q80.58-6.91 80.58-5.89L80.58-5.89L80.58-5.89Q78.75 0 74.48 0L74.48 0L74.48 0Q69.41 0 69.20-7.11L69.20-7.11L69.20-17.06L69.20-17.06Q69.61-19.91 65.55-19.70L65.55-19.70L65.55-19.70Q63.52-19.70 63.52-21.13L63.52-21.13L63.52-21.13Q64.53-24.98 70.42-25.39L70.42-25.39L70.42-25.39Q77.53-25.19 77.73-18.28ZM101.88 0L101.88 0L101.88 0Q97.81 0 98.02-1.42L98.02-1.42L98.02-1.42Q97.81-3.05 101.06-3.25L101.06-3.25L101.06-3.25Q106.14-4.88 106.14-10.56L106.14-10.56L106.14-10.56Q106.14-16.25 101.67-16.25L101.67-16.25L101.67-16.25Q101.06-16.25 100.25-16.05L100.25-16.05L100.25-16.05Q99.44-15.84 99.03-15.84L99.03-15.84L99.03-15.84Q97.81-16.05 97.81-17.27L97.81-17.27L97.81-17.27Q97.61-18.28 100.66-21.73L100.66-21.73L100.66-21.73Q101.06-22.14 101.67-22.95L101.67-22.95L101.67-22.95Q103.30-25.19 104.72-24.98L104.72-24.98L104.72-24.98Q113.86-22.95 114.67-13L114.67-13L114.67-13Q113.86-0.41 101.88 0ZM88.27 0L88.27-2.44L88.27-15.84L88.27-15.84Q88.27-17.67 86.44-18.69L86.44-18.69L86.44-18.69Q84.61-19.70 84.61-21.13L84.61-21.13L84.61-21.13Q84.61-22.14 87.05-23.36L87.05-23.36L87.05-23.36Q88.67-24.38 89.28-24.58L89.28-24.58L89.28-24.58Q92.53-26.81 93.34-26.41L93.34-26.41L93.34-26.41Q96.59-26 96.80-20.52L96.80-20.52L96.80-0.81L96.80-0.81Q96.80 2.03 98.63 3.45L98.63 3.45L98.63 3.45Q99.44 4.06 99.44 4.67L99.44 4.67L99.44 4.67Q97.81 11.17 93.14 11.38L93.14 11.38L93.14 11.38Q88.27 10.77 88.06 3.66L88.06 3.66L88.06 3.66Q88.06 2.03 88.27 0L88.27 0Z"></path></g> <!----> <!----> <!----> <!----> <!----> <!----> <!----></g> <!----></g></g></svg>